<svg width="36" height="56" viewBox="0 0 36 56" fill="none" xmlns="http://www.w3.org/2000/svg">
<path d="M34.952 41.1535C34.952 41.9493 34.7891 42.6566 34.5331 43.3361L32.7181 42.289C32.8345 41.912 32.881 41.5723 32.881 41.1535V15.5713C32.881 15.199 32.8298 14.836 32.7321 14.4962L34.5471 13.4491C34.803 14.11 34.9473 14.822 34.9473 15.5713V41.1535H34.952ZM32.5227 45.9376L21.7164 53.8166C20.8136 54.4728 19.7758 54.8637 18.7287 54.9568V52.8532C19.3476 52.7695 19.9526 52.5321 20.4925 52.1365L31.2987 44.2576C31.685 43.9737 32.0387 43.606 32.29 43.2105L34.077 44.2436C33.6815 44.8672 33.1463 45.4815 32.5227 45.933M18.2307 51.8852C17.6443 51.8852 17.0626 51.6991 16.5553 51.3314L11.6595 47.7666V38.3751C11.7432 34.3542 14.4425 30.5241 18.2307 29.1512C22.126 30.6171 24.8019 34.3728 24.8019 38.6078V47.7573L19.9061 51.3175C19.3942 51.6851 18.8124 51.8852 18.2307 51.8852ZM17.7188 54.9568C16.6717 54.8637 15.6339 54.4914 14.731 53.8352L3.92477 45.9469C3.30116 45.4955 2.73804 44.8393 2.34712 44.225L4.1342 43.1965C4.38085 43.5641 4.76712 44.0156 5.15804 44.2948L15.9689 52.1412C16.5088 52.5368 17.1045 52.7834 17.7188 52.8672V54.9614V54.9568ZM1.90035 43.3128C1.61181 42.6101 1.50477 41.9539 1.50477 41.1581V15.5713C1.50477 14.8965 1.58854 14.2356 1.89104 13.4212L3.71535 14.473C3.61297 14.9383 3.56643 15.2176 3.57573 15.5713V41.1535C3.57573 41.577 3.5897 41.8795 3.71535 42.2611L1.90035 43.3082V43.3128ZM3.98062 10.7452L14.7496 2.89884C15.6525 2.24265 16.6763 1.8843 17.7234 1.79123V3.86219C17.1045 3.94596 16.4995 4.17399 15.9643 4.56492L5.1627 12.4718C4.69266 12.8162 4.4367 13.0535 4.1342 13.5468L2.35177 12.5137C2.76131 11.7691 3.25927 11.2711 3.98527 10.7452M4.58097 27.3827V15.5713C4.58097 15.1012 4.68335 14.6638 4.87881 14.2775C5.07427 13.8912 5.36747 13.5515 5.74443 13.2723L10.6496 9.69346V18.1123C10.6496 22.9941 7.49893 26.0285 4.57631 27.3781M10.6542 38.3751C10.6542 38.4542 10.6542 38.5287 10.6542 38.6078V47.0266L5.74908 43.4525C5.37212 43.1779 5.07893 42.8381 4.88347 42.4472C4.688 42.061 4.58562 41.6235 4.58562 41.1535V29.342C8.1272 30.7847 10.5798 34.5729 10.6589 38.3705M4.8695 28.36C7.87123 27.1035 10.2866 24.4415 11.1522 21.4258C12.2877 24.9813 14.8473 27.2617 17.4535 28.36C14.5309 29.5375 12.0085 32.3158 11.1568 35.3036C10.0213 31.7666 7.84797 29.7376 4.8695 28.36ZM19.9014 5.41657L24.8066 8.99073V18.1216C24.8066 22.31 22.1399 26.075 18.2353 27.5689C15.1033 26.4054 11.6595 23.1617 11.6595 18.1216V8.96746L16.5553 5.3933C17.0626 5.02565 17.6443 4.83949 18.2307 4.83949C18.8171 4.83949 19.3942 5.04426 19.9014 5.41657ZM25.8165 18.1216V9.73534L30.703 13.2862C31.4709 13.8447 31.8618 14.6824 31.8711 15.5759V27.3781C28.8042 25.9307 25.8118 22.9197 25.8118 18.1216M25.3045 35.3175C24.1737 31.7713 21.628 29.449 19.0079 28.36C22.0329 27.0895 24.3086 24.5858 25.2999 21.4677C26.3842 24.8743 28.6972 27.1128 31.5919 28.36C28.9578 29.477 26.4447 31.7248 25.3045 35.3175ZM25.8118 38.6078C25.8118 34.6706 28.2411 30.901 31.8758 29.3513V41.1581C31.8758 42.0423 31.429 42.9359 30.7123 43.4571L25.8118 47.0313V38.6125V38.6078ZM18.7333 1.79123C19.7804 1.87965 20.8136 2.25661 21.7164 2.9128L32.5227 10.8104C33.1789 11.2897 33.7047 11.8715 34.1003 12.5323L32.3086 13.5468C32.0526 13.1373 31.7175 12.7743 31.2987 12.4718L20.4925 4.59284C19.9526 4.20192 19.3476 3.95061 18.7333 3.86684V1.79123ZM35.2126 12.4346C34.7286 11.4852 34.0212 10.6475 33.109 9.98665L22.3028 2.10769C21.0788 1.21415 19.6873 0.753418 18.2633 0.753418C16.7601 0.753418 15.3919 1.16296 14.1725 2.05649L3.34304 9.95407C2.43554 10.6149 1.71885 11.4759 1.23485 12.4206C0.75085 13.3746 0.490234 14.3985 0.490234 15.5526V41.1302C0.490234 43.378 1.51408 45.4443 3.32443 46.766L14.14 54.6589C15.3639 55.5525 16.8066 55.9899 18.226 55.9899C19.6455 55.9899 21.0788 55.5199 22.3028 54.6263L33.1137 46.7474C34.0212 46.0819 34.7193 45.2395 35.2033 44.2948C35.6873 43.3408 35.9479 42.275 35.9479 41.1535V15.5713C35.9479 14.4497 35.6919 13.384 35.2033 12.4346" fill="white"/>
</svg>
