<svg width="36" height="56" viewBox="0 0 36 56" fill="none" xmlns="http://www.w3.org/2000/svg">
<path d="M34.952 40.9276C34.952 41.7234 34.7891 42.4308 34.5331 43.1103L32.7181 42.0632C32.8345 41.6862 32.881 41.3465 32.881 40.9276V15.3454C32.881 14.9731 32.8298 14.6101 32.7321 14.2704L34.5471 13.2233C34.803 13.8841 34.9473 14.5962 34.9473 15.3454V40.9276H34.952ZM32.5227 45.7118L21.7164 53.5907C20.8136 54.2469 19.7758 54.6379 18.7287 54.7309V52.6274C19.3476 52.5436 19.9526 52.3063 20.4925 51.9107L31.2987 44.0317C31.685 43.7479 32.0387 43.3802 32.29 42.9846L34.077 44.0178C33.6815 44.6414 33.1463 45.2557 32.5227 45.7071M18.2307 51.6594C17.6443 51.6594 17.0626 51.4732 16.5553 51.1056L11.6595 47.5407V38.1493C11.7432 34.1284 14.4425 30.2982 18.2307 28.9254C22.126 30.3913 24.8019 34.147 24.8019 38.382V47.5314L19.9061 51.0916C19.3942 51.4593 18.8124 51.6594 18.2307 51.6594ZM17.7188 54.7309C16.6717 54.6379 15.6339 54.2655 14.731 53.6094L3.92477 45.7211C3.30116 45.2697 2.73804 44.6135 2.34712 43.9992L4.1342 42.9707C4.38085 43.3383 4.76712 43.7897 5.15804 44.069L15.9689 51.9154C16.5088 52.3109 17.1045 52.5576 17.7188 52.6414V54.7356V54.7309ZM1.90035 43.087C1.61181 42.3843 1.50477 41.7281 1.50477 40.9323V15.3454C1.50477 14.6706 1.58854 14.0098 1.89104 13.1954L3.71535 14.2471C3.61297 14.7125 3.56643 14.9917 3.57573 15.3454V40.9276C3.57573 41.3511 3.5897 41.6536 3.71535 42.0352L1.90035 43.0824V43.087ZM3.98062 10.5194L14.7496 2.67301C15.6525 2.01682 16.6763 1.65847 17.7234 1.5654V3.63636C17.1045 3.72013 16.4995 3.94816 15.9643 4.33909L5.1627 12.246C4.69266 12.5904 4.4367 12.8277 4.1342 13.321L2.35177 12.2879C2.76131 11.5432 3.25927 11.0453 3.98527 10.5194M4.58097 27.1569V15.3454C4.58097 14.8754 4.68335 14.4379 4.87881 14.0517C5.07427 13.6654 5.36747 13.3257 5.74443 13.0464L10.6496 9.46763V17.8864C10.6496 22.7683 7.49893 25.8026 4.57631 27.1522M10.6542 38.1493C10.6542 38.2284 10.6542 38.3029 10.6542 38.382V46.8008L5.74908 43.2266C5.37212 42.952 5.07893 42.6123 4.88347 42.2214C4.688 41.8351 4.58562 41.3977 4.58562 40.9276V29.1162C8.1272 30.5589 10.5798 34.3471 10.6589 38.1446M4.8695 28.1342C7.87123 26.8777 10.2866 24.2157 11.1522 21.2C12.2877 24.7555 14.8473 27.0359 17.4535 28.1342C14.5309 29.3116 12.0085 32.09 11.1568 35.0777C10.0213 31.5408 7.84797 29.5117 4.8695 28.1342ZM19.9014 5.19074L24.8066 8.7649V17.8957C24.8066 22.0842 22.1399 25.8492 18.2353 27.343C15.1033 26.1796 11.6595 22.9359 11.6595 17.8957V8.74163L16.5553 5.16747C17.0626 4.79982 17.6443 4.61366 18.2307 4.61366C18.8171 4.61366 19.3942 4.81843 19.9014 5.19074ZM25.8165 17.8957V9.50951L30.703 13.0604C31.4709 13.6189 31.8618 14.4565 31.8711 15.3501V27.1522C28.8042 25.7049 25.8118 22.6939 25.8118 17.8957M25.3045 35.0917C24.1737 31.5455 21.628 29.2232 19.0079 28.1342C22.0329 26.8637 24.3086 24.3599 25.2999 21.2419C26.3842 24.6485 28.6972 26.887 31.5919 28.1342C28.9578 29.2511 26.4447 31.4989 25.3045 35.0917ZM25.8118 38.382C25.8118 34.4448 28.2411 30.6752 31.8758 29.1255V40.9323C31.8758 41.8165 31.429 42.71 30.7123 43.2313L25.8118 46.8054V38.3866V38.382ZM18.7333 1.5654C19.7804 1.65382 20.8136 2.03078 21.7164 2.68697L32.5227 10.5845C33.1789 11.0639 33.7047 11.6456 34.1003 12.3065L32.3086 13.321C32.0526 12.9115 31.7175 12.5485 31.2987 12.246L20.4925 4.36701C19.9526 3.97609 19.3476 3.72478 18.7333 3.64101V1.5654ZM35.2126 12.2087C34.7286 11.2594 34.0212 10.4217 33.109 9.76082L22.3028 1.88186C21.0788 0.988319 19.6873 0.527588 18.2633 0.527588C16.7601 0.527588 15.3919 0.937126 14.1725 1.83066L3.34304 9.72824C2.43554 10.3891 1.71885 11.25 1.23485 12.1948C0.75085 13.1488 0.490234 14.1727 0.490234 15.3268V40.9044C0.490234 43.1522 1.51408 45.2185 3.32443 46.5402L14.14 54.4331C15.3639 55.3266 16.8066 55.7641 18.226 55.7641C19.6455 55.7641 21.0788 55.294 22.3028 54.4005L33.1137 46.5215C34.0212 45.856 34.7193 45.0137 35.2033 44.069C35.6873 43.1149 35.9479 42.0492 35.9479 40.9276V15.3454C35.9479 14.2239 35.6919 13.1581 35.2033 12.2087" fill="#9E0042"/>
</svg>
