<svg width="74" height="19" viewBox="0 0 74 19" fill="none" xmlns="http://www.w3.org/2000/svg">
<path d="M38.3042 16.2234V0.843204H37.0679V0.0708618H41.9689V0.843204H40.7437V16.2234H38.3042ZM1.86619 16.2234V0.843204H0.629883V0.0708618H5.53096V0.843204H4.29465V16.2234H1.86619ZM33.5576 9.08594C34.5511 9.2191 35.7764 10.2578 35.8536 12.0821V15.2114C35.8095 16.3965 35.0037 18.1143 33.3258 18.2075H26.2281C26.1177 18.2075 25.0359 18.2741 24.1639 16.9958C24.2964 16.7561 24.4509 16.3832 24.4951 16.2101C25.0911 17.1556 25.4996 17.3553 26.1508 17.4352H31.5155C33.0167 17.2488 33.37 15.8506 33.4031 15.2114V12.0688C33.3479 10.7371 32.4648 9.92486 31.5486 9.84496H24.2522V14.8252C24.2522 16.6362 22.9055 18.2209 21.4043 18.2209H1.32531V17.4352H10.719C11.8229 17.2887 11.9774 16.3033 11.9664 15.8772V0.856523H10.7301V0.0841809H15.6312V0.856523H14.4059V15.9837C14.4059 16.4365 14.2624 16.9425 13.9312 17.4352H19.5498C21.5588 17.2887 21.8458 15.2647 21.8017 14.7054V9.07262C25.7203 9.11257 29.639 9.07263 33.5466 9.09926M48.294 15.8639V0.843204H47.0687V0.0708618H51.9477V0.843204H50.7335V15.9704C50.7335 16.4232 50.59 16.9292 50.2588 17.4219H57.2683C58.1955 17.342 58.5046 16.4498 58.5046 15.9305V0.843204H57.2683V0.0708618H62.1693V0.843204H60.9441V11.0301C61.6064 9.84496 62.7102 9.08594 64.0017 9.0593L70.9339 9.08594C71.9273 9.2191 73.1526 10.2578 73.2299 12.0821V18.1942H37.7743V17.4219H47.0577C48.1726 17.2754 48.3161 16.29 48.305 15.8639M60.9441 13.5202V15.9571C60.933 16.4498 60.8006 16.9292 60.4694 17.4219H69.4216C70.1391 17.4219 70.6248 16.9292 70.7904 16.2367V12.0555C70.7352 10.7238 69.8521 9.91154 68.9359 9.83165H64.09C62.6992 9.77838 61.0765 11.11 60.9441 13.5202Z" fill="#9E0042"/>
</svg>
