<svg width="74" height="19" viewBox="0 0 74 19" fill="none" xmlns="http://www.w3.org/2000/svg">
<path d="M38.3042 16.4494V1.06922H37.0679V0.296875H41.9689V1.06922H40.7437V16.4494H38.3042ZM1.86619 16.4494V1.06922H0.629883V0.296875H5.53096V1.06922H4.29465V16.4494H1.86619ZM33.5576 9.31195C34.5511 9.44512 35.7764 10.4838 35.8536 12.3081V15.4374C35.8095 16.6226 35.0037 18.3403 33.3258 18.4336H26.2281C26.1177 18.4336 25.0359 18.5001 24.1639 17.2218C24.2964 16.9821 24.4509 16.6092 24.4951 16.4361C25.0911 17.3816 25.4996 17.5813 26.1508 17.6612H31.5155C33.0167 17.4748 33.37 16.0766 33.4031 15.4374V12.2948C33.3479 10.9632 32.4648 10.1509 31.5486 10.071H24.2522V15.0512C24.2522 16.8622 22.9055 18.4469 21.4043 18.4469H1.32531V17.6612H10.719C11.8229 17.5147 11.9774 16.5293 11.9664 16.1032V1.08254H10.7301V0.310194H15.6312V1.08254H14.4059V16.2098C14.4059 16.6625 14.2624 17.1685 13.9312 17.6612H19.5498C21.5588 17.5147 21.8458 15.4907 21.8017 14.9314V9.29864C25.7203 9.33858 29.639 9.29864 33.5466 9.32527M48.294 16.0899V1.06922H47.0687V0.296875H51.9477V1.06922H50.7335V16.1964C50.7335 16.6492 50.59 17.1552 50.2588 17.6479H57.2683C58.1955 17.568 58.5046 16.6758 58.5046 16.1565V1.06922H57.2683V0.296875H62.1693V1.06922H60.9441V11.2561C61.6064 10.071 62.7102 9.31195 64.0017 9.28532L70.9339 9.31195C71.9273 9.44512 73.1526 10.4838 73.2299 12.3081V18.4202H37.7743V17.6479H47.0577C48.1726 17.5014 48.3161 16.516 48.305 16.0899M60.9441 13.7463V16.1831C60.933 16.6758 60.8006 17.1552 60.4694 17.6479H69.4216C70.1391 17.6479 70.6248 17.1552 70.7904 16.4628V12.2815C70.7352 10.9498 69.8521 10.1376 68.9359 10.0577H64.09C62.6992 10.0044 61.0765 11.336 60.9441 13.7463Z" fill="white"/>
</svg>
